#!OML:ASF F:\VICON\USERDATA\INSTALL\rory3\rory3.ASF
:FULLY-SPECIFIED
:DEGREES
878
root -2.66197 29.7928 -10.3478 194.76 -78.8303 166.06
lowerback 8.51627 1.43721 -4.09168
upperback 0.889973 1.34735 -2.46899
thorax -3.89068 0.68133 -0.419402
lowerneck -6.56982 3.17654 -3.7379
upperneck 16.107 4.27669 1.85993
head 5.82291 1.89487 1.48378
rclavicle 3.67752e-015 -1.59028e-015
rhumerus -32.7811 -12.3987 -74.7784
rradius 17.24
rwrist 23.6801
rhand -21.2339 5.49435
rfingers 7.12502
rthumb 5.14848 -24.4231
lclavicle 3.67752e-015 -1.59028e-015
lhumerus -22.6861 14.5165 74.4573
lradius 26.3481
lwrist 3.4167
lhand -25.7229 23.6932
lfingers 7.12502
lthumb 0.813354 53.6714
rfemur -17.7153 29.5594 14.3687
rtibia 32.3141
rfoot -15.3296 1.24125
rtoes 3.31497
lfemur -1.28447 -18.9581 -19.5721
ltibia 21.1273
lfoot 9.06159 -31.7988
ltoes 32.2355
879
root -2.66655 29.7989 -10.4132 197.476 -79.8726 163.448
lowerback 8.56467 1.38439 -4.32434
upperback 0.928447 1.25829 -2.3824
thorax -3.88262 0.641322 -0.189304
lowerneck -6.69748 3.25487 -3.8371
upperneck 16.0028 4.42847 1.74245
head 5.80903 1.95932 1.47424
rclavicle -1.93318e-014 -3.97569e-015
rhumerus -32.2067 -12.7383 -74.3342
rradius 17.5212
rwrist 24.7034
rhand -22.4452 4.30081
rfingers 7.12502
rthumb 3.9789 -25.6418
lclavicle -1.93318e-014 -3.97569e-015
lhumerus -22.6657 14.5876 74.4575
lradius 26.4519
lwrist 4.31029
lhand -26.4288 23.5342
lfingers 7.12502
lthumb 0.131563 53.5139
rfemur -17.5389 29.0471 14.4359
rtibia 32.2612
rfoot -15.4786 0.655848
rtoes 3.74361
lfemur -1.66595 -18.8869 -19.411
ltibia 21.3254
lfoot 9.5842 -31.6689
ltoes 32.1099
880
root -2.66779 29.8085 -10.4711 200.088 -80.7862 161.052
lowerback 8.65595 1.32813 -4.27349
upperback 0.871418 1.18205 -2.3833
thorax -3.98969 0.605647 -0.212615
lowerneck -6.68576 3.26563 -3.65378
upperneck 15.8111 4.47892 1.40554
head 5.75893 1.97603 1.33918
rclavicle -2.30093e-014 6.75868e-015
rhumerus -31.6328 -12.2545 -74.4742
rradius 17.8259
rwrist 24.5652
rhand -23.1604 4.23241
rfingers 7.12502
rthumb 3.28816 -25.722
lclavicle -2.30093e-014 6.75868e-015
lhumerus -22.7066 14.4014 74.3439
lradius 26.6016
lwrist 5.12702
lhand -27.4785 23.6517
lfingers 7.12502
lthumb -0.882226 53.6296
rfemur -17.5314 28.6277 14.4974
rtibia 32.1836
rfoot -15.5235 0.0643675
rtoes 4.61262
lfemur -2.20448 -18.6513 -19.1328
ltibia 21.5402
lfoot 9.93229 -31.5323
ltoes 32.044
881
root -2.6786 29.8191 -10.5265 201.848 -81.566 159.452
lowerback 8.68575 1.30742 -4.05696
upperback 0.819191 1.17756 -2.33515
thorax -4.05694 0.603423 -0.284792
lowerneck -6.50077 3.32667 -3.5945
upperneck 15.6045 4.58701 1.16135
head 5.66785 2.01947 1.25328
rclavicle -8.94531e-015 -4.77083e-015
rhumerus -31.0802 -10.6462 -75.1384
rradius 18.1911
rwrist 23.5069
rhand -24.6792 2.90183
rfingers 7.12502
rthumb 1.82137 -27.0701
lclavicle -8.94531e-015 -4.77083e-015
lhumerus -22.866 14.5848 74.1824
lradius 26.6902
lwrist 5.4468
lhand -27.2304 23.551
lfingers 7.12502
lthumb -0.642651 53.5298
rfemur -17.3908 28.4952 14.7485
rtibia 32.0482
rfoot -15.5666 -0.661309
rtoes 4.66765
lfemur -2.58043 -18.3053 -18.7848
ltibia 21.7499
lfoot 10.2048 -31.4155
ltoes 32.2616
882
root -2.69708 29.8274 -10.5845 203.045 -82.4054 158.273
lowerback 8.73271 1.33123 -3.7444
upperback 0.832175 1.2443 -2.25877
thorax -4.06591 0.633449 -0.389416
lowerneck -6.33477 3.34568 -3.57
upperneck 15.5018 4.61762 1.07118
head 5.60961 2.03211 1.21816
rclavicle 9.74045e-015 -3.45885e-014
rhumerus -30.6867 -9.57388 -75.4946
rradius 18.7705
rwrist 21.9062
rhand -24.5964 3.11813
rfingers 7.12502
rthumb 1.90138 -26.8531
lclavicle 9.74045e-015 -3.45885e-014
lhumerus -22.9223 14.5712 74.1098
lradius 26.7003
lwrist 5.83994
lhand -26.7867 23.6712
lfingers 7.12502
lthumb -0.214088 53.6508
rfemur -16.9969 28.221 15.2211
rtibia 31.857
rfoot -15.6464 -1.2008
rtoes 4.73529
lfemur -2.70487 -17.9361 -18.4096
ltibia 21.9385
lfoot 10.2116 -31.4462
ltoes 31.9126
883
root -2.72149 29.8419 -10.636 206.831 -83.356 154.493
lowerback 8.74285 1.28758 -3.45522
upperback 0.874611 1.21302 -2.31864
thorax -4.01911 0.612036 -0.609076
lowerneck -6.28132 3.35937 -3.65848
upperneck 15.45 4.62453 1.22249
head 5.57785 2.04376 1.27833
rclavicle 1.70458e-014 -1.74931e-014
rhumerus -30.3486 -9.03114 -75.7026
rradius 19.4082
rwrist 20.6884
rhand -24.5849 3.42576
rfingers 7.12502
rthumb 1.91246 -26.5454
lclavicle 1.70458e-014 -1.74931e-014
lhumerus -22.8456 14.5688 73.954
lradius 26.5591
lwrist 5.87044
lhand -26.92 23.6797
lfingers 7.12502
lthumb -0.342835 53.6591
rfemur -16.5414 27.366 15.4535
rtibia 31.6316
rfoot -15.7425 -1.36407
rtoes 5.11005
lfemur -2.8305 -17.7832 -18.2835
ltibia 22.0899
lfoot 10.3315 -31.3699
ltoes 31.5354
884
root -2.74771 29.8558 -10.6849 212.058 -84.2583 149.407
lowerback 8.53952 1.2251 -3.18468
upperback 0.93354 1.16886 -2.35016
thorax -3.83708 0.584418 -0.782223
lowerneck -6.30425 3.34123 -3.87183
upperneck 15.3089 4.61049 1.36918
head 5.52925 2.04077 1.35633
rclavicle 2.68359e-015 -8.74653e-015
rhumerus -29.8807 -8.95299 -75.592
rradius 19.9577
rwrist 20.5157
rhand -25.4527 2.46708
rfingers 7.12502
rthumb 1.07437 -27.51
lclavicle 2.68359e-015 -8.74653e-015
lhumerus -22.7213 14.8418 73.8397
lradius 26.3501
lwrist 5.55383
lhand -27.0637 23.6839
lfingers 7.12502
lthumb -0.481652 53.6631
rfemur -16.1908 27.1932 15.5997
rtibia 31.3303
rfoot -15.855 -2.1929
rtoes 5.46838
lfemur -3.17107 -17.6196 -18.1034
ltibia 22.3167
lfoot 10.729 -30.9848
ltoes 31.7295
885
root -2.76518 29.8671 -10.7377 217.019 -85.0712 144.699
lowerback 8.31997 1.20978 -2.91461
upperback 0.932264 1.19193 -2.28051
thorax -3.71159 0.59349 -0.859002
lowerneck -6.40146 3.26644 -4.06142
upperneck 15.2185 4.54078 1.37904
head 5.51531 2.00117 1.38679
rclavicle -1.23743e-014 5.56597e-015
rhumerus -29.4608 -8.83141 -75.4053
rradius 20.5636
rwrist 20.3175
rhand -25.1617 2.16037
rfingers 7.12502
rthumb 1.35537 -27.8151
lclavicle -1.23743e-014 5.56597e-015
lhumerus -22.586 15.4235 73.7446
lradius 26.0511
lwrist 4.90083
lhand -27.0349 23.5851
lfingers 7.12502
lthumb -0.453797 53.5643
rfemur -16.0934 26.8477 15.8306
rtibia 31.0733
rfoot -15.8015 -2.76374
rtoes 4.70704
lfemur -3.61652 -17.2225 -17.7152
ltibia 22.4929
lfoot 10.605 -30.614
ltoes 31.0728
886
root -2.78542 29.8763 -10.7802 217.197 -85.9989 144.509
lowerback 8.35209 1.21873 -2.09415
upperback 0.991551 1.2941 -2.08408
thorax -3.65427 0.636071 -1.12689
lowerneck -6.43147 3.19534 -4.25851
upperneck 15.1287 4.47525 1.36962
head 5.49049 1.96125 1.41126
rclavicle -1.04859e-014 7.95139e-015
rhumerus -29.0418 -8.46722 -75.2413
rradius 21.1937
rwrist 19.731
rhand -25.1115 2.27334
rfingers 7.12502
rthumb 1.40388 -27.7018
lclavicle -1.04859e-014 7.95139e-015
lhumerus -22.5081 15.802 73.7414
lradius 25.7685
lwrist 4.09524
lhand -27.1735 23.7194
lfingers 7.12502
lthumb -0.587664 53.6983
rfemur -15.648 26.6079 16.6943
rtibia 30.7882
rfoot -15.78 -3.22127
rtoes 4.01265
lfemur -3.72873 -16.7005 -16.9819
ltibia 22.7696
lfoot 9.86139 -30.4218
ltoes 29.5762
887
root -2.80371 29.8868 -10.8361 231.762 -86.4389 130.081
lowerback 8.2147 1.18459 -2.40027
upperback 1.00335 1.22508 -2.10785
thorax -3.57164 0.60533 -0.968555
lowerneck -6.37235 3.14596 -4.33714
upperneck 15.0533 4.43479 1.24579
head 5.45994 1.93083 1.38076
rclavicle 1.61513e-014 -2.38542e-014
rhumerus -28.593 -8.13632 -75.0694
rradius 21.7705
rwrist 19.1878
rhand -24.9572 2.93644
rfingers 7.12502
rthumb 1.5529 -27.0377
lclavicle 1.61513e-014 -2.38542e-014
lhumerus -22.535 15.8011 73.8025
lradius 25.5591
lwrist 3.26487
lhand -27.5553 24.2187
lfingers 7.12502
lthumb -0.956408 54.1963
rfemur -15.4209 26.2369 16.4598
rtibia 30.5277
rfoot -16.0204 -3.77247
rtoes 4.95779
lfemur -4.11969 -16.3766 -17.2031
ltibia 23.1228
lfoot 9.64728 -29.9129
ltoes 29.1477
